<svg xmlns="http://www.w3.org/2000/svg" viewBox="0 0 1024 1024" preserveAspectRatio="xMidYMid meet">
  <defs>
    <linearGradient id="gold" x1="0%" y1="0%" x2="100%" y2="100%">
      <stop offset="0%" stop-color="#856220"/>
      <stop offset="28%" stop-color="#F4E683"/>
      <stop offset="50%" stop-color="#BF923D"/>
      <stop offset="75%" stop-color="#4E341B"/>
      <stop offset="100%" stop-color="#F1EA82"/>
    </linearGradient>
  </defs>

  <g transform="translate(0.000000,1024.000000) scale(0.100000,-0.100000)" fill="url(#gold)" stroke="none">
    <path d="M2843 9575 c-35 -12 -86 -38 -115 -58 -29 -20 -89 -50 -133 -68 -155
-63 -240 -136 -296 -254 -48 -101 -57 -155 -53 -311 5 -166 -10 -240 -78 -387
-40 -88 -42 -96 -43 -193 0 -92 2 -104 26 -140 42 -63 70 -122 60 -128 -10 -7
-83 50 -119 92 -13 15 -53 88 -90 162 -37 74 -100 190 -140 256 -39 67 -72
126 -72 130 0 5 28 7 62 5 35 -1 96 2 138 9 123 19 121 18 118 54 l-3 31 -150
7 c-242 11 -279 23 -390 119 -42 38 -46 40 -29 14 12 -16 28 -43 36 -60 8 -16
56 -104 105 -195 50 -91 98 -178 107 -195 9 -16 54 -109 100 -207 l85 -176 97
-84 c170 -145 242 -219 300 -304 l56 -84 73 0 74 0 -43 -62 c-110 -160 -135
-198 -181 -273 -33 -55 -89 -120 -177 -208 -158 -159 -206 -220 -266 -344
l-47 -98 0 -130 c0 -120 2 -134 27 -188 35 -75 122 -165 211 -219 l71 -43 117
-3 c89 -3 125 0 154 12 20 9 45 16 54 16 9 0 73 32 143 70 153 85 229 102 370
83 124 -17 131 -19 256 -82 188 -94 225 -105 377 -105 98 0 141 4 174 17 24 9
50 17 57 17 12 0 -10 -72 -83 -265 -24 -65 -64 -188 -69 -215 -3 -14 -9 -39
-13 -56 -12 -44 -14 -226 -2 -255 5 -14 12 -41 15 -60 3 -19 17 -70 31 -114
13 -44 25 -87 25 -96 0 -29 -211 -170 -405 -268 -226 -116 -342 -146 -555
-146 -143 0 -162 3 -245 29 -137 44 -215 88 -325 182 -144 124 -269 284 -354
453 l-27 53 51 57 c110 122 184 219 216 286 40 83 57 181 42 248 -9 44 -13 48
-71 76 -34 16 -63 28 -64 27 -1 -1 5 -24 13 -51 17 -55 13 -114 -12 -202 -13
-45 -38 -77 -177 -231 -169 -185 -227 -253 -267 -312 -13 -19 -27 -37 -30 -40
-3 -3 -28 -41 -56 -85 -170 -265 -251 -455 -308 -725 -32 -146 -42 -528 -18
-640 7 -30 14 -68 16 -85 20 -146 142 -482 249 -688 56 -107 142 -246 205
-331 20 -28 53 -74 72 -103 19 -29 36 -51 37 -49 2 2 -7 30 -21 62 -76 184
-118 290 -151 384 -21 58 -43 119 -50 135 -41 94 -142 417 -150 482 -2 11 -6
30 -9 40 -17 54 -36 278 -36 428 0 146 20 381 35 404 2 4 7 22 10 39 26 148
191 514 283 627 4 6 22 31 40 57 18 26 37 50 42 53 11 7 166 -299 285 -560 42
-93 104 -228 137 -298 34 -70 58 -131 54 -134 -3 -4 -16 3 -29 13 -12 11 -65
49 -117 84 l-95 64 75 -83 c122 -134 157 -178 225 -282 78 -119 175 -289 175
-307 0 -7 -12 -39 -26 -70 -68 -148 -140 -357 -178 -512 -39 -164 -76 -332
-81 -369 -2 -18 -7 -41 -9 -50 -18 -56 -54 -374 -60 -526 l-6 -130 34 -40 c40
-47 37 -53 56 110 6 55 15 120 21 145 5 25 11 61 13 80 9 71 51 296 60 320 3
8 8 29 10 45 2 17 8 48 14 70 6 22 28 108 48 190 41 171 41 170 90 325 142
448 345 701 709 883 122 61 152 73 208 82 21 3 35 10 32 16 -14 21 -247 -27
-327 -67 -27 -14 -48 -21 -48 -17 1 15 146 162 236 240 50 43 116 99 145 124
50 43 169 138 230 184 15 11 58 46 97 77 39 32 75 58 79 58 6 0 42 -113 48
-150 0 -3 6 -25 12 -50 18 -72 33 -151 38 -210 3 -30 10 -82 15 -115 13 -80
12 -334 -1 -415 -6 -36 -12 -81 -14 -100 -5 -54 -32 -175 -61 -275 -14 -49
-29 -103 -34 -120 -31 -118 -188 -456 -291 -630 -84 -139 -125 -208 -149 -244
-155 -240 -294 -480 -319 -554 -48 -139 -33 -257 51 -403 85 -148 136 -263
175 -396 l38 -128 50 -22 c27 -13 54 -25 59 -27 5 -2 6 0 3 5 -3 5 -8 40 -11
77 -3 38 -8 72 -10 75 -2 4 -7 30 -10 57 -12 91 -47 188 -109 305 -127 241
-127 240 -127 307 0 121 63 236 337 616 126 175 339 555 404 720 11 29 27 66
34 82 7 17 25 62 40 100 14 39 30 80 35 93 6 13 10 32 10 42 0 11 5 20 10 20
14 0 13 -340 -1 -433 -5 -40 -20 -119 -32 -177 -12 -61 -22 -143 -22 -195 0
-77 4 -100 29 -159 60 -148 120 -221 221 -270 42 -21 79 -35 82 -33 9 10 -31
72 -90 142 -66 78 -133 204 -142 270 -4 23 -1 69 5 101 7 31 13 67 15 78 1 12
7 46 13 76 21 111 45 455 57 825 7 225 25 372 70 560 24 99 47 213 63 310 11
73 6 567 -9 808 -12 204 -11 239 16 438 7 50 29 101 61 138 29 35 147 100 204
112 19 4 62 15 95 23 33 9 67 18 75 20 8 2 40 13 70 25 30 12 56 21 58 21 5 0
-11 -53 -55 -190 -61 -191 -92 -269 -123 -316 -56 -85 -105 -180 -131 -258
-23 -69 -27 -95 -25 -176 2 -53 8 -105 14 -116 27 -52 88 -341 112 -534 22
-176 -9 -285 -191 -677 -16 -34 -29 -66 -29 -70 0 -4 -6 -19 -13 -33 -17 -32
-89 -250 -102 -306 -47 -209 -48 -216 -49 -454 -1 -223 7 -319 35 -435 5 -22
11 -49 13 -60 12 -63 91 -315 121 -379 7 -17 37 -87 66 -156 28 -69 63 -149
76 -179 89 -194 203 -480 258 -646 58 -176 56 -271 -9 -470 -25 -77 -46 -144
-46 -148 0 -4 21 -7 46 -5 45 3 46 4 61 48 8 25 20 59 28 75 52 120 60 157 59
290 0 123 -10 184 -42 265 -5 14 -9 27 -9 30 1 20 -79 241 -153 420 -48 118
-111 276 -139 350 -29 74 -56 146 -62 160 -25 57 -66 193 -95 315 -8 33 -19
76 -24 95 -5 19 -12 53 -15 75 -3 22 -10 64 -15 94 -13 73 -12 398 1 486 6 39
12 79 13 90 6 38 36 172 42 189 8 21 17 20 51 -7 15 -13 46 -34 67 -47 57 -34
181 -134 254 -204 111 -106 247 -306 304 -446 44 -111 62 -171 104 -345 8 -33
19 -78 25 -100 5 -22 11 -49 13 -60 2 -11 18 -87 35 -170 16 -82 33 -166 36
-185 3 -19 10 -60 15 -90 5 -30 13 -86 19 -125 6 -38 18 -111 26 -162 9 -50
14 -95 13 -100 -1 -4 3 -46 9 -93 37 -268 43 -435 18 -560 -8 -41 -30 -124
-50 -184 -19 -60 -33 -111 -32 -112 1 -2 24 3 51 9 43 11 50 17 62 52 15 48
54 190 61 225 2 14 8 43 13 65 13 53 12 245 0 320 -6 33 -12 87 -15 120 -3 33
-10 89 -15 125 -5 36 -14 108 -20 160 -6 52 -16 124 -22 160 -5 36 -11 79 -13
95 -5 42 -54 327 -60 345 -35 113 -20 350 34 525 17 56 78 193 107 240 101
164 282 364 455 503 l76 61 17 -62 c9 -34 19 -75 22 -92 3 -16 7 -37 9 -45 3
-9 12 -67 20 -130 25 -187 19 -407 -17 -625 -6 -38 -12 -77 -13 -85 -2 -19
-43 -199 -60 -265 -34 -130 -66 -248 -75 -270 -5 -14 -7 -25 -4 -25 2 0 0 -8
-5 -18 -5 -10 -19 -52 -30 -93 -10 -41 -38 -132 -60 -204 -23 -71 -43 -139
-46 -150 -2 -11 -18 -72 -35 -135 -17 -63 -32 -125 -35 -138 -2 -13 -8 -38
-14 -55 -19 -66 -51 -385 -45 -467 1 -30 3 -62 4 -72 0 -9 6 -15 13 -14 6 2
29 6 50 11 l37 7 2 102 c1 55 2 116 3 134 3 59 39 257 60 332 7 25 17 63 23
85 44 158 90 309 189 605 30 91 56 173 58 183 2 9 6 21 9 25 9 15 77 285 82
326 3 22 7 42 9 46 4 6 29 158 46 285 28 196 0 605 -49 735 -5 14 -10 27 -10
30 0 23 -87 287 -101 304 -4 6 -14 27 -21 46 -8 19 -45 100 -83 180 -38 80
-75 163 -84 185 -8 22 -18 49 -23 60 -29 75 -36 128 -35 255 2 172 44 416 81
470 81 120 84 307 7 475 -10 22 -47 83 -84 135 -36 53 -77 128 -93 170 -15 41
-39 104 -53 140 -33 84 -74 212 -70 217 2 2 33 -8 69 -20 36 -13 98 -32 139
-42 115 -27 208 -74 255 -128 81 -91 91 -186 75 -678 -16 -476 -6 -701 35
-859 76 -295 96 -414 114 -690 5 -91 15 -221 20 -290 6 -69 13 -163 15 -210 5
-92 21 -225 37 -305 5 -27 11 -62 13 -77 2 -15 9 -46 16 -70 6 -24 12 -77 12
-118 1 -68 -2 -82 -36 -151 -21 -41 -56 -100 -78 -130 -36 -47 -89 -139 -89
-153 0 -12 126 62 164 96 71 61 146 223 152 323 2 33 -3 85 -11 115 -53 212
-82 440 -89 699 -5 188 -4 195 18 240 22 42 78 199 76 211 -1 3 4 19 10 35 17
44 39 202 45 324 9 160 3 157 107 55 93 -93 388 -407 494 -529 34 -38 100
-110 148 -160 86 -91 94 -105 77 -147 -5 -13 -22 -63 -37 -113 -15 -49 -31
-97 -35 -105 -4 -8 -19 -44 -34 -80 -112 -269 -238 -534 -517 -1086 -229 -455
-296 -599 -353 -769 -41 -122 -45 -160 -30 -245 7 -41 19 -114 26 -161 l13
-86 65 29 c36 17 69 33 73 36 4 4 -5 50 -18 102 -30 111 -34 233 -11 301 25
74 122 272 234 479 58 107 138 256 178 330 117 217 288 563 354 720 34 80 66
154 71 165 36 78 120 323 120 349 0 9 5 16 10 16 6 0 10 -85 11 -232 1 -286 5
-416 19 -668 16 -292 30 -671 30 -809 l0 -121 38 19 c20 10 48 31 61 45 l24
25 -7 358 c-4 197 -11 437 -16 533 -18 330 -24 807 -10 925 31 281 161 653
307 884 63 98 147 226 153 231 3 3 21 25 40 50 19 25 50 63 70 85 19 22 46 54
59 70 l23 30 23 -29 c78 -98 209 -414 250 -606 47 -220 58 -456 29 -650 -21
-147 -45 -294 -49 -300 -2 -3 -6 -21 -9 -40 -5 -31 -12 -66 -47 -238 -5 -24
-11 -46 -13 -50 -2 -4 -7 -25 -10 -47 -4 -22 -11 -56 -16 -75 -15 -58 -51
-204 -55 -221 -2 -9 -13 -49 -25 -89 -12 -39 -20 -74 -17 -76 2 -2 43 51 91
117 83 114 129 198 155 279 12 39 51 174 56 199 3 9 13 52 24 96 36 142 44
180 47 201 1 12 7 45 13 75 32 166 43 532 20 681 -34 217 -100 426 -189 603
-112 221 -337 540 -525 745 -63 69 -100 152 -100 225 1 118 18 238 55 378 6
20 14 52 18 70 42 159 252 787 288 859 19 37 96 161 172 275 159 237 249 392
338 578 60 125 72 155 135 330 30 86 119 387 123 420 2 11 12 63 24 115 41
193 50 299 30 378 -16 66 -42 98 -101 129 -50 25 -220 89 -262 98 -11 3 -29 9
-40 14 -32 15 -152 48 -270 76 -60 14 -127 30 -148 36 -21 6 -57 13 -80 15
-22 3 -44 7 -47 9 -3 2 -76 15 -161 29 -85 14 -165 28 -179 32 -14 3 1 -9 34
-26 32 -16 84 -46 115 -65 34 -21 85 -41 126 -50 39 -8 97 -22 130 -30 33 -8
67 -17 76 -19 88 -22 350 -107 479 -156 229 -86 227 -84 228 -187 1 -62 -35
-272 -59 -349 -5 -17 -11 -40 -13 -51 -11 -56 -108 -367 -131 -418 -7 -16 -22
-52 -33 -80 -109 -273 -214 -460 -450 -800 -63 -90 -128 -217 -172 -335 -17
-47 -40 -105 -50 -130 -10 -25 -23 -64 -29 -87 -13 -49 -28 -55 -36 -15 -4 15
-18 74 -33 132 -21 83 -26 129 -27 224 0 106 -1 114 -11 80 -15 -48 -12 -271
4 -371 34 -211 40 -293 23 -293 -4 0 -11 20 -14 44 -15 110 -110 332 -196 460
-66 97 -70 120 -97 503 -9 123 -7 128 51 102 69 -31 90 -19 235 129 69 71 147
143 174 161 l49 32 -5 -98 -5 -98 17 50 c9 28 28 73 42 100 14 28 38 84 53
125 37 101 168 387 221 482 62 113 184 355 184 366 0 5 -19 12 -43 14 -45 5
-212 81 -282 128 -22 14 -78 46 -125 70 -47 23 -91 47 -97 52 -10 8 -13 -1
-13 -41 0 -45 3 -52 28 -65 25 -13 81 -51 235 -159 22 -16 64 -42 94 -59 35
-20 52 -35 49 -44 -3 -8 -43 -78 -89 -156 -89 -150 -155 -277 -186 -356 -58
-146 -90 -201 -133 -228 -58 -37 -70 -36 -81 8 -8 33 -4 47 42 138 110 220
109 272 -15 542 l-54 117 0 133 c0 82 -6 152 -14 183 -42 151 -131 256 -253
295 -58 19 -76 31 -119 79 -135 148 -380 169 -613 51 -160 -80 -270 -221 -335
-430 -42 -136 -80 -202 -170 -298 -45 -48 -91 -100 -102 -117 -47 -66 -70
-204 -46 -267 6 -14 14 -53 17 -85 9 -76 -5 -108 -82 -198 -93 -108 -113 -155
-113 -264 0 -72 5 -104 24 -156 l25 -65 -67 -44 c-86 -56 -126 -99 -161 -172
-51 -108 -55 -145 -53 -449 1 -199 6 -297 16 -340 12 -52 14 -55 15 -24 1 19
5 60 10 90 5 30 14 115 21 189 6 74 16 164 22 200 6 36 12 78 14 94 4 29 14
63 41 141 8 22 30 62 49 88 57 79 143 107 401 132 32 3 80 12 107 20 27 8 51
13 54 10 5 -5 -41 -100 -130 -270 -111 -208 -140 -258 -189 -322 -109 -140
-206 -316 -229 -415 -26 -112 10 -253 91 -354 27 -34 55 -64 62 -67 7 -3 18
-31 25 -63 6 -33 18 -93 27 -134 8 -41 20 -100 26 -130 6 -30 31 -127 56 -215
24 -88 46 -167 48 -175 29 -141 31 -238 6 -375 -5 -27 -18 -111 -30 -185 -12
-74 -26 -162 -32 -195 -5 -33 -10 -71 -11 -85 0 -14 -6 -70 -14 -125 -7 -55
-13 -120 -13 -145 -1 -82 -26 -263 -37 -267 -7 -2 -14 16 -18 44 -10 68 -8 58
-77 308 -62 227 -78 425 -61 736 14 251 15 647 2 704 -5 22 -12 56 -15 75 -15
92 -88 186 -192 247 -42 25 -43 26 -44 81 0 36 -11 89 -30 142 -42 123 -80
250 -85 285 -2 17 -8 63 -14 104 -7 51 -7 130 1 255 5 100 8 206 5 236 -4 30
-8 79 -11 108 -12 137 -88 364 -156 469 -52 79 -126 132 -215 153 -32 8 -83
29 -113 47 -90 54 -139 66 -254 61 -282 -12 -480 -188 -597 -528 -12 -36 -23
-74 -24 -85 -2 -11 -8 -42 -14 -70 -25 -112 -34 -291 -22 -453 15 -202 3 -319
-47 -447 -19 -49 -38 -97 -42 -105 -7 -13 -32 -119 -47 -197 -2 -12 -16 -30
-30 -40 -56 -38 -147 -130 -166 -167 -26 -51 -53 -148 -59 -211 -5 -63 -4
-283 3 -750 7 -393 2 -453 -47 -630 -17 -62 -23 -84 -24 -97 -1 -5 -5 -8 -11
-8 -5 0 -9 17 -9 38 2 35 -29 199 -53 287 -6 22 -12 45 -14 50 -7 28 -71 239
-114 375 -40 129 -71 236 -75 260 -28 163 -13 239 104 540 38 96 89 251 112
340 44 169 54 355 24 472 -32 122 -115 255 -264 423 -39 44 -82 103 -96 130
-25 52 -86 215 -137 370 -16 49 -34 95 -40 102 -13 16 -8 16 62 -2 96 -25 131
-3 192 120 43 88 63 116 155 222 93 106 126 175 148 305 7 40 23 104 34 138 5
14 14 45 21 70 13 47 24 85 61 205 11 39 23 78 25 89 2 10 12 48 23 85 24 83
41 146 41 155 0 4 -22 -19 -49 -51 -74 -89 -102 -111 -146 -117 -22 -3 -60
-10 -85 -15 -25 -6 -76 -15 -113 -22 -55 -9 -67 -14 -63 -28 3 -9 8 -29 12
-44 6 -27 9 -28 43 -22 20 4 54 9 76 11 22 2 61 6 88 10 26 3 47 2 47 -3 0 -5
-15 -55 -34 -111 -19 -56 -33 -102 -31 -102 3 0 0 -12 -6 -27 -9 -24 -51 -162
-64 -213 -15 -60 -65 -170 -77 -170 -6 0 -12 142 -8 183 2 15 -61 171 -104
259 -41 83 -58 132 -66 183 -43 301 -121 481 -270 623 -137 131 -278 190 -452
190 -72 0 -107 -5 -155 -23z m-69 -426 c20 -12 36 -28 36 -36 0 -8 9 -38 21
-66 68 -172 142 -251 325 -345 112 -59 186 -127 225 -208 17 -36 29 -68 26
-70 -2 -2 -25 18 -50 44 l-45 49 -7 -71 c-4 -39 -8 -150 -8 -246 0 -229 17
-292 108 -410 43 -55 53 -82 146 -380 28 -92 25 -79 48 -175 16 -65 18 -88 9
-125 -36 -158 -148 -372 -277 -531 -63 -79 -168 -186 -174 -178 -2 2 -16 31
-31 63 -35 78 -50 180 -43 291 7 97 22 158 56 219 31 54 19 56 -20 4 -44 -60
-94 -171 -109 -246 -11 -54 -10 -176 3 -232 8 -35 30 -97 45 -127 9 -18 13
-35 10 -38 -7 -7 -248 -9 -255 -2 -2 3 10 32 26 66 58 115 66 146 66 281 -1
114 -3 130 -27 180 -14 30 -33 64 -43 75 l-17 20 7 -20 c38 -109 29 -259 -25
-396 -25 -64 -81 -149 -97 -149 -18 0 -121 89 -183 158 -73 80 -135 198 -156
296 -12 57 -16 238 -6 279 11 40 77 145 249 392 26 38 74 101 107 140 74 88
95 135 96 205 l0 55 61 12 c34 6 85 26 116 45 58 35 168 136 159 146 -3 3 -14
-2 -23 -10 -23 -20 -128 -73 -172 -87 -106 -34 -216 9 -295 118 -67 92 -134
237 -150 325 -3 16 -11 55 -18 85 -6 31 -12 117 -12 191 0 133 0 136 32 198
18 34 40 72 50 83 14 18 172 149 179 149 1 0 18 -9 37 -21z m4902 4 c90 -30
171 -99 214 -183 68 -133 67 -421 -2 -625 -28 -84 -87 -197 -129 -248 -88
-107 -265 -128 -381 -45 -49 35 -30 1 25 -42 72 -59 121 -80 188 -80 l56 0 6
-77 c8 -104 12 -118 47 -186 18 -34 32 -78 34 -105 2 -26 9 -114 16 -196 7
-82 10 -188 8 -236 -6 -101 -24 -134 -123 -230 -60 -58 -174 -190 -215 -250
-13 -19 -31 -42 -39 -50 -22 -22 -112 -161 -122 -189 -12 -29 -25 -19 -33 24
-3 17 -10 56 -16 87 -18 96 18 267 72 348 l30 45 -27 -25 c-130 -120 -174
-350 -99 -528 8 -18 14 -36 14 -41 0 -5 -36 -12 -81 -15 -76 -7 -83 -6 -120
18 -21 14 -75 70 -119 124 -134 161 -209 343 -210 510 0 71 2 75 80 230 150
297 208 396 270 468 34 39 71 87 82 105 57 94 88 278 68 402 -7 40 -13 81 -15
93 -5 39 -38 179 -44 191 -5 10 -14 9 -36 -4 -72 -38 -107 -54 -113 -49 -3 3
-3 8 -1 9 2 2 55 45 118 96 178 144 232 228 246 386 9 98 16 116 66 182 71 95
171 125 285 86z m-2186 -1521 c1 -67 81 -228 154 -309 77 -86 97 -118 112
-181 14 -62 19 -162 7 -162 -5 0 -16 33 -26 73 -21 84 -37 108 -37 54 0 -123
-65 -287 -160 -400 -57 -70 -65 -105 -51 -232 11 -97 40 -168 89 -221 16 -18
42 -70 60 -120 42 -121 109 -332 117 -371 9 -43 -27 -110 -124 -236 -42 -54
-80 -106 -86 -115 -5 -10 -21 -33 -35 -52 -14 -19 -45 -75 -70 -125 l-46 -90
-89 -3 -90 -2 -44 96 c-25 53 -56 111 -70 129 -14 19 -51 68 -81 110 -30 41
-67 92 -83 113 -15 20 -43 64 -62 98 -38 66 -45 125 -24 194 5 19 12 42 14 50
2 8 11 42 20 75 9 33 20 74 25 90 27 104 46 153 77 193 41 54 56 89 71 167 30
150 25 170 -68 292 -52 67 -100 193 -100 259 0 31 -4 43 -11 38 -16 -9 -61
-115 -61 -141 0 -13 -4 -23 -8 -23 -10 0 -20 37 -20 71 0 15 9 57 21 95 17 56
30 77 75 121 66 64 106 85 210 113 98 26 169 68 258 149 39 36 116 178 116
214 0 10 5 15 10 12 6 -3 10 -14 10 -23z m1835 -1467 c68 -43 177 -90 230 -99
153 -28 173 -29 246 -17 41 7 85 15 99 17 14 2 43 10 64 19 21 9 40 15 41 13
2 -2 -10 -53 -25 -113 -16 -61 -32 -123 -35 -140 -3 -16 -9 -48 -15 -70 -24
-99 -8 -284 31 -357 16 -30 117 -165 128 -173 25 -15 241 -284 241 -300 0 -7
-137 -162 -191 -215 -164 -162 -347 -299 -486 -362 -214 -97 -458 -90 -678 19
-59 30 -195 120 -248 166 l-37 32 21 120 c11 66 22 133 24 149 3 15 7 36 10
46 3 10 8 35 11 56 2 21 10 57 16 79 6 22 11 96 12 165 1 118 -1 132 -36 240
-33 104 -77 249 -84 275 -1 6 -11 42 -22 80 -27 97 -52 207 -52 226 0 13 15
17 76 21 68 5 89 11 182 59 59 30 119 65 136 79 26 22 43 26 125 31 124 7 133
6 216 -46z m-1888 -1134 c38 -16 85 -35 104 -44 85 -38 131 -47 231 -43 74 2
98 0 94 -9 -5 -15 -41 -185 -57 -275 -38 -215 -2 -374 159 -695 19 -38 48
-108 65 -155 52 -151 53 -135 -11 -174 -133 -80 -325 -165 -403 -180 -13 -2
-44 -10 -69 -17 -66 -18 -355 -16 -450 4 -71 15 -269 77 -307 95 -237 117
-273 137 -267 152 3 8 14 40 24 70 17 53 27 78 56 147 8 17 14 34 14 39 0 4
11 30 24 58 121 256 158 409 136 558 -15 108 -37 220 -49 250 -5 12 -9 28 -9
33 -1 6 -6 32 -13 58 -6 26 -9 51 -6 54 3 3 20 1 36 -5 42 -15 257 -10 273 6
6 6 18 12 25 12 7 0 55 20 105 45 118 57 186 61 295 16z"/>
    <path d="M4425 9510 c-77 -20 -213 -64 -260 -85 -16 -8 -59 -26 -95 -40 -78
-32 -266 -129 -299 -154 -20 -16 -22 -23 -16 -59 4 -23 11 -42 17 -42 5 0 69
30 142 66 72 36 183 83 246 105 63 22 124 44 135 49 33 15 148 50 186 56 40 7
92 -15 108 -44 5 -10 17 -55 25 -101 18 -96 22 -481 6 -603 -5 -40 -11 -98
-14 -128 -2 -30 -12 -100 -21 -155 -9 -55 -20 -125 -25 -155 -4 -30 -11 -62
-14 -70 -3 -8 -8 -28 -10 -45 -4 -34 -74 -304 -82 -317 -3 -4 -16 -36 -29 -70
-46 -123 -136 -353 -145 -373 -28 -58 -106 -301 -125 -388 -4 -22 -9 -26 -19
-18 -13 11 -160 254 -172 284 -3 9 -10 17 -15 17 -7 0 3 -27 41 -115 135 -312
180 -427 180 -463 0 -10 3 -12 9 -6 14 14 78 180 95 247 8 31 17 61 20 65 3 5
7 19 10 33 9 47 159 448 226 604 45 103 118 330 125 385 1 8 7 33 13 55 6 22
16 69 22 105 6 36 16 85 21 110 5 25 11 70 14 100 2 30 10 89 17 130 15 96 15
621 0 705 -6 33 -14 80 -17 104 -17 116 -73 198 -152 220 -49 14 -64 13 -148
-9z"/>
    <path d="M1155 9318 c-85 -86 -97 -227 -45 -553 7 -38 13 -83 15 -100 11 -86
73 -320 126 -480 97 -288 204 -500 434 -855 86 -133 109 -179 155 -309 23 -63
43 -118 46 -123 7 -11 77 79 107 138 13 27 34 87 45 134 21 86 46 269 39 277
-3 2 -12 -30 -22 -72 -24 -109 -105 -306 -105 -256 0 39 -129 273 -265 481
-85 130 -114 183 -185 340 -95 208 -133 309 -183 480 -29 98 -68 254 -72 288
-2 13 -8 45 -14 70 -23 108 -33 213 -30 314 4 96 6 110 27 130 20 20 32 23
105 22 69 -1 270 -28 287 -39 3 -2 23 -6 45 -9 61 -10 189 -43 315 -82 63 -20
122 -38 131 -40 12 -3 20 5 28 27 14 40 14 59 1 59 -6 0 -29 8 -53 19 -61 27
-373 123 -437 135 -8 1 -40 7 -70 13 -134 27 -183 33 -279 33 l-104 0 -42 -42z"/>
  </g>
</svg>